<mxfile host="app.diagrams.net" agent="Mozilla/5.0 (Macintosh; Intel Mac OS X 10_15_7) AppleWebKit/537.36 (KHTML, like Gecko) Chrome/138.0.0.0 Safari/537.36" version="28.0.7">
  <diagram name="Pagina-1" id="y3NWHgSRVW6AskdiTANH">
    <mxGraphModel dx="1183" dy="1819" grid="1" gridSize="10" guides="1" tooltips="1" connect="1" arrows="1" fold="1" page="1" pageScale="1" pageWidth="827" pageHeight="1169" math="0" shadow="0">
      <root>
        <mxCell id="0" />
        <mxCell id="1" parent="0" />
        <mxCell id="4" value="BackendSystem" style="shape=umlLifeline;perimeter=lifelinePerimeter;whiteSpace=wrap;container=1;dropTarget=0;collapsible=0;recursiveResize=0;outlineConnect=0;portConstraint=eastwest;newEdgeStyle={&quot;edgeStyle&quot;:&quot;elbowEdgeStyle&quot;,&quot;elbow&quot;:&quot;vertical&quot;,&quot;curved&quot;:0,&quot;rounded&quot;:0};size=65;" parent="1" vertex="1">
          <mxGeometry x="581" width="150" height="640" as="geometry" />
        </mxCell>
        <mxCell id="5" value="" style="shape=umlLifeline;perimeter=lifelinePerimeter;whiteSpace=wrap;container=1;dropTarget=0;collapsible=0;recursiveResize=0;outlineConnect=0;portConstraint=eastwest;newEdgeStyle={&quot;edgeStyle&quot;:&quot;elbowEdgeStyle&quot;,&quot;elbow&quot;:&quot;vertical&quot;,&quot;curved&quot;:0,&quot;rounded&quot;:0};size=65;" parent="1" vertex="1">
          <mxGeometry x="808" width="150" height="640" as="geometry" />
        </mxCell>
        <mxCell id="6" value="ProcivisOneTrialSystem" style="shape=umlLifeline;perimeter=lifelinePerimeter;whiteSpace=wrap;container=1;dropTarget=0;collapsible=0;recursiveResize=0;outlineConnect=0;portConstraint=eastwest;newEdgeStyle={&quot;edgeStyle&quot;:&quot;elbowEdgeStyle&quot;,&quot;elbow&quot;:&quot;vertical&quot;,&quot;curved&quot;:0,&quot;rounded&quot;:0};size=65;" parent="1" vertex="1">
          <mxGeometry x="1008" width="189" height="640" as="geometry" />
        </mxCell>
        <mxCell id="7" value="Wallet" style="shape=umlLifeline;perimeter=lifelinePerimeter;whiteSpace=wrap;container=1;dropTarget=0;collapsible=0;recursiveResize=0;outlineConnect=0;portConstraint=eastwest;newEdgeStyle={&quot;edgeStyle&quot;:&quot;elbowEdgeStyle&quot;,&quot;elbow&quot;:&quot;vertical&quot;,&quot;curved&quot;:0,&quot;rounded&quot;:0};size=65;" parent="1" vertex="1">
          <mxGeometry x="1247" width="150" height="640" as="geometry" />
        </mxCell>
        <mxCell id="8" value="Request issuance of card credential" style="verticalAlign=bottom;edgeStyle=elbowEdgeStyle;elbow=vertical;curved=0;rounded=0;endArrow=block;exitX=0.5;exitY=0.127;exitDx=0;exitDy=0;exitPerimeter=0;" parent="1" edge="1">
          <mxGeometry relative="1" as="geometry">
            <Array as="points">
              <mxPoint x="248" y="122.99" />
            </Array>
            <mxPoint x="70" y="119.99999999999999" as="sourcePoint" />
            <mxPoint x="403.5" y="122.99" as="targetPoint" />
          </mxGeometry>
        </mxCell>
        <mxCell id="9" value="Send request to issue VC" style="verticalAlign=bottom;edgeStyle=elbowEdgeStyle;elbow=vertical;curved=0;rounded=0;endArrow=block;" parent="1" source="tkkPVr7UNTlhT1nrTb7S-18" target="4" edge="1">
          <mxGeometry relative="1" as="geometry">
            <Array as="points">
              <mxPoint x="539" y="151" />
            </Array>
            <mxPoint x="403.5" y="151" as="sourcePoint" />
          </mxGeometry>
        </mxCell>
        <mxCell id="10" value="Query user card data&#xa;GET api/accounts/X" style="verticalAlign=bottom;edgeStyle=elbowEdgeStyle;elbow=vertical;curved=0;rounded=0;endArrow=block;" parent="1" source="4" target="5" edge="1">
          <mxGeometry relative="1" as="geometry">
            <Array as="points">
              <mxPoint x="778" y="199" />
            </Array>
          </mxGeometry>
        </mxCell>
        <mxCell id="11" value="Return user card data" style="verticalAlign=bottom;edgeStyle=elbowEdgeStyle;elbow=vertical;curved=0;rounded=0;dashed=1;dashPattern=2 3;endArrow=block;" parent="1" source="5" target="4" edge="1">
          <mxGeometry relative="1" as="geometry">
            <Array as="points">
              <mxPoint x="781" y="247" />
            </Array>
          </mxGeometry>
        </mxCell>
        <mxCell id="12" value="Request to create VC with encrypted data" style="verticalAlign=bottom;edgeStyle=elbowEdgeStyle;elbow=vertical;curved=0;rounded=0;endArrow=block;" parent="1" source="4" target="6" edge="1">
          <mxGeometry relative="1" as="geometry">
            <Array as="points">
              <mxPoint x="892.37" y="280" />
            </Array>
            <mxPoint x="659.62" y="280" as="sourcePoint" />
            <mxPoint x="1106.37" y="280" as="targetPoint" />
          </mxGeometry>
        </mxCell>
        <mxCell id="13" value="Create VC" style="verticalAlign=bottom;edgeStyle=elbowEdgeStyle;elbow=vertical;curved=0;rounded=0;dashed=1;dashPattern=2 3;endArrow=block;" parent="1" edge="1">
          <mxGeometry x="0.0017" relative="1" as="geometry">
            <Array as="points">
              <mxPoint x="900" y="319.38" />
            </Array>
            <mxPoint x="1102" y="319.38" as="sourcePoint" />
            <mxPoint x="655.25" y="319.38" as="targetPoint" />
            <mxPoint as="offset" />
          </mxGeometry>
        </mxCell>
        <mxCell id="14" value="Display QR code" style="verticalAlign=bottom;edgeStyle=elbowEdgeStyle;elbow=vertical;curved=0;rounded=0;endArrow=block;" parent="1" source="4" target="tkkPVr7UNTlhT1nrTb7S-18" edge="1">
          <mxGeometry relative="1" as="geometry">
            <Array as="points">
              <mxPoint x="542" y="410" />
            </Array>
            <mxPoint x="655.4999999999998" y="410" as="sourcePoint" />
            <mxPoint x="403.2500000000002" y="410" as="targetPoint" />
          </mxGeometry>
        </mxCell>
        <mxCell id="15" value="Show QR code" style="verticalAlign=bottom;edgeStyle=elbowEdgeStyle;elbow=vertical;curved=0;rounded=0;endArrow=block;" parent="1" target="tkkPVr7UNTlhT1nrTb7S-17" edge="1">
          <mxGeometry relative="1" as="geometry">
            <Array as="points">
              <mxPoint x="251" y="439" />
            </Array>
            <mxPoint x="403.5" y="439" as="sourcePoint" />
            <mxPoint x="74.5" y="439" as="targetPoint" />
          </mxGeometry>
        </mxCell>
        <mxCell id="16" value="Scan QR code" style="verticalAlign=bottom;edgeStyle=elbowEdgeStyle;elbow=vertical;curved=0;rounded=0;endArrow=block;" parent="1" source="tkkPVr7UNTlhT1nrTb7S-17" target="7" edge="1">
          <mxGeometry relative="1" as="geometry">
            <Array as="points">
              <mxPoint x="707" y="487" />
            </Array>
            <mxPoint x="74.5" y="487" as="sourcePoint" />
          </mxGeometry>
        </mxCell>
        <mxCell id="17" value="Receive and securely store VC" style="verticalAlign=bottom;edgeStyle=elbowEdgeStyle;elbow=vertical;curved=0;rounded=0;dashed=1;dashPattern=2 3;endArrow=block;" parent="1" source="7" target="tkkPVr7UNTlhT1nrTb7S-17" edge="1">
          <mxGeometry relative="1" as="geometry">
            <Array as="points">
              <mxPoint x="710" y="535" />
            </Array>
            <mxPoint x="74.5" y="535" as="targetPoint" />
          </mxGeometry>
        </mxCell>
        <mxCell id="tkkPVr7UNTlhT1nrTb7S-17" value="&lt;div&gt;&lt;br&gt;&lt;/div&gt;&lt;div&gt;&lt;br&gt;&lt;/div&gt;&lt;div&gt;&lt;br&gt;&lt;/div&gt;&lt;div&gt;&lt;br&gt;&lt;/div&gt;&lt;div&gt;&lt;br&gt;&lt;/div&gt;&lt;div&gt;Bank&lt;/div&gt;&lt;div&gt;Customer&lt;/div&gt;" style="shape=umlLifeline;perimeter=lifelinePerimeter;whiteSpace=wrap;html=1;container=1;dropTarget=0;collapsible=0;recursiveResize=0;outlineConnect=0;portConstraint=eastwest;newEdgeStyle={&quot;curved&quot;:0,&quot;rounded&quot;:0};participant=umlActor;" vertex="1" parent="1">
          <mxGeometry x="60" y="20" width="20" height="630" as="geometry" />
        </mxCell>
        <mxCell id="tkkPVr7UNTlhT1nrTb7S-18" value="&lt;div&gt;&lt;br&gt;&lt;/div&gt;&lt;div&gt;&lt;br&gt;&lt;/div&gt;&lt;div&gt;&lt;br&gt;&lt;/div&gt;&lt;div&gt;&lt;br&gt;&lt;/div&gt;&lt;div&gt;&lt;br&gt;&lt;/div&gt;&lt;div&gt;&lt;br&gt;&lt;/div&gt;Bank Employee" style="shape=umlLifeline;perimeter=lifelinePerimeter;whiteSpace=wrap;html=1;container=1;dropTarget=0;collapsible=0;recursiveResize=0;outlineConnect=0;portConstraint=eastwest;newEdgeStyle={&quot;curved&quot;:0,&quot;rounded&quot;:0};participant=umlActor;" vertex="1" parent="1">
          <mxGeometry x="394" y="20" width="20" height="630" as="geometry" />
        </mxCell>
        <mxCell id="tkkPVr7UNTlhT1nrTb7S-19" value="DB" style="shape=cylinder3;whiteSpace=wrap;html=1;boundedLbl=1;backgroundOutline=1;size=15;" vertex="1" parent="1">
          <mxGeometry x="859.5" y="-10" width="47" height="70" as="geometry" />
        </mxCell>
        <mxCell id="tkkPVr7UNTlhT1nrTb7S-20" value="Request to share VCÂ " style="verticalAlign=bottom;edgeStyle=elbowEdgeStyle;elbow=vertical;curved=0;rounded=0;endArrow=block;" edge="1" parent="1">
          <mxGeometry relative="1" as="geometry">
            <Array as="points">
              <mxPoint x="896.8699999999999" y="350" />
            </Array>
            <mxPoint x="659.5" y="350" as="sourcePoint" />
            <mxPoint x="1106.5" y="350" as="targetPoint" />
          </mxGeometry>
        </mxCell>
        <mxCell id="tkkPVr7UNTlhT1nrTb7S-21" value="Gives back QR code url" style="verticalAlign=bottom;edgeStyle=elbowEdgeStyle;elbow=vertical;curved=0;rounded=0;dashed=1;dashPattern=2 3;endArrow=block;" edge="1" parent="1" source="6" target="4">
          <mxGeometry x="0.0017" relative="1" as="geometry">
            <Array as="points">
              <mxPoint x="910" y="390" />
            </Array>
            <mxPoint x="1106.5" y="360" as="sourcePoint" />
            <mxPoint x="659.5" y="360" as="targetPoint" />
            <mxPoint as="offset" />
          </mxGeometry>
        </mxCell>
      </root>
    </mxGraphModel>
  </diagram>
</mxfile>
